<svg width="208" height="208" viewBox="0 0 208 208" fill="none" xmlns="http://www.w3.org/2000/svg">
<g opacity="0.75" filter="url(#filter0_d_24_7)">
<path d="M4 10C4 4.47716 8.47715 0 14 0H194C199.523 0 204 4.47715 204 10V190C204 195.523 199.523 200 194 200H14C8.47716 200 4 195.523 4 190V10Z" fill="url(#paint0_radial_24_7)" shape-rendering="crispEdges"/>
</g>
<path d="M18.48 21.28H19.728C20.256 21.28 20.792 21.24 21.336 21.16C21.88 21.08 22.376 20.936 22.824 20.728C23.272 20.504 23.64 20.208 23.928 19.84C24.216 19.472 24.36 19.008 24.36 18.448C24.36 17.728 24.048 17.144 23.424 16.696C22.816 16.232 22 16 20.976 16C20.096 16 19.304 16.104 18.6 16.312C17.896 16.504 17.376 16.704 17.04 16.912L16.296 15.016C16.488 14.888 16.744 14.768 17.064 14.656C17.4 14.528 17.768 14.416 18.168 14.32C18.584 14.224 19.032 14.152 19.512 14.104C19.992 14.04 20.488 14.008 21 14.008C21.832 14.008 22.6 14.096 23.304 14.272C24.008 14.448 24.616 14.72 25.128 15.088C25.64 15.44 26.04 15.896 26.328 16.456C26.616 17 26.76 17.648 26.76 18.4C26.76 19.168 26.512 19.888 26.016 20.56C25.536 21.232 24.824 21.72 23.88 22.024C24.36 22.152 24.816 22.336 25.248 22.576C25.696 22.8 26.08 23.096 26.4 23.464C26.736 23.816 27 24.232 27.192 24.712C27.4 25.192 27.504 25.752 27.504 26.392C27.504 27.272 27.336 28.032 27 28.672C26.68 29.296 26.224 29.808 25.632 30.208C25.056 30.608 24.352 30.896 23.52 31.072C22.688 31.264 21.768 31.36 20.76 31.36C20.152 31.36 19.576 31.312 19.032 31.216C18.488 31.136 18 31.04 17.568 30.928C17.136 30.8 16.76 30.664 16.44 30.52C16.12 30.376 15.872 30.256 15.696 30.16L16.392 28.24C16.568 28.336 16.8 28.448 17.088 28.576C17.392 28.704 17.728 28.824 18.096 28.936C18.464 29.048 18.872 29.144 19.32 29.224C19.768 29.304 20.24 29.344 20.736 29.344C22.096 29.344 23.152 29.12 23.904 28.672C24.672 28.208 25.056 27.432 25.056 26.344C25.056 25.704 24.92 25.184 24.648 24.784C24.392 24.368 24.032 24.04 23.568 23.8C23.12 23.56 22.584 23.4 21.96 23.32C21.352 23.224 20.688 23.176 19.968 23.176H18.48V21.28ZM34.8784 29.392C35.4064 29.392 35.8704 29.384 36.2704 29.368C36.6864 29.336 37.0304 29.288 37.3024 29.224V25.504C37.1424 25.424 36.8784 25.36 36.5104 25.312C36.1584 25.248 35.7264 25.216 35.2144 25.216C34.8784 25.216 34.5184 25.24 34.1344 25.288C33.7664 25.336 33.4224 25.44 33.1024 25.6C32.7984 25.744 32.5424 25.952 32.3344 26.224C32.1264 26.48 32.0224 26.824 32.0224 27.256C32.0224 28.056 32.2784 28.616 32.7904 28.936C33.3024 29.24 33.9984 29.392 34.8784 29.392ZM34.6864 18.208C35.5824 18.208 36.3344 18.328 36.9424 18.568C37.5664 18.792 38.0624 19.12 38.4304 19.552C38.8144 19.968 39.0864 20.472 39.2464 21.064C39.4064 21.64 39.4864 22.28 39.4864 22.984V30.784C39.2944 30.816 39.0224 30.864 38.6704 30.928C38.3344 30.976 37.9504 31.024 37.5184 31.072C37.0864 31.12 36.6144 31.16 36.1024 31.192C35.6064 31.24 35.1104 31.264 34.6144 31.264C33.9104 31.264 33.2624 31.192 32.6704 31.048C32.0784 30.904 31.5664 30.68 31.1344 30.376C30.7024 30.056 30.3664 29.64 30.1264 29.128C29.8864 28.616 29.7664 28 29.7664 27.28C29.7664 26.592 29.9024 26 30.1744 25.504C30.4624 25.008 30.8464 24.608 31.3264 24.304C31.8064 24 32.3664 23.776 33.0064 23.632C33.6464 23.488 34.3184 23.416 35.0224 23.416C35.2464 23.416 35.4784 23.432 35.7184 23.464C35.9584 23.48 36.1824 23.512 36.3904 23.56C36.6144 23.592 36.8064 23.624 36.9664 23.656C37.1264 23.688 37.2384 23.712 37.3024 23.728V23.104C37.3024 22.736 37.2624 22.376 37.1824 22.024C37.1024 21.656 36.9584 21.336 36.7504 21.064C36.5424 20.776 36.2544 20.552 35.8864 20.392C35.5344 20.216 35.0704 20.128 34.4944 20.128C33.7584 20.128 33.1104 20.184 32.5504 20.296C32.0064 20.392 31.5984 20.496 31.3264 20.608L31.0624 18.76C31.3504 18.632 31.8304 18.512 32.5024 18.4C33.1744 18.272 33.9024 18.208 34.6864 18.208ZM50.9214 20.392H45.4254V31H43.1934V18.52H50.9214V20.392ZM64.2407 24.76C64.2407 25.752 64.0967 26.648 63.8087 27.448C63.5207 28.248 63.1127 28.936 62.5847 29.512C62.0727 30.088 61.4567 30.536 60.7367 30.856C60.0167 31.16 59.2327 31.312 58.3847 31.312C57.5367 31.312 56.7527 31.16 56.0327 30.856C55.3127 30.536 54.6887 30.088 54.1607 29.512C53.6487 28.936 53.2487 28.248 52.9607 27.448C52.6727 26.648 52.5287 25.752 52.5287 24.76C52.5287 23.784 52.6727 22.896 52.9607 22.096C53.2487 21.28 53.6487 20.584 54.1607 20.008C54.6887 19.432 55.3127 18.992 56.0327 18.688C56.7527 18.368 57.5367 18.208 58.3847 18.208C59.2327 18.208 60.0167 18.368 60.7367 18.688C61.4567 18.992 62.0727 19.432 62.5847 20.008C63.1127 20.584 63.5207 21.28 63.8087 22.096C64.0967 22.896 64.2407 23.784 64.2407 24.76ZM61.9127 24.76C61.9127 23.352 61.5927 22.24 60.9527 21.424C60.3287 20.592 59.4727 20.176 58.3847 20.176C57.2967 20.176 56.4327 20.592 55.7927 21.424C55.1687 22.24 54.8567 23.352 54.8567 24.76C54.8567 26.168 55.1687 27.288 55.7927 28.12C56.4327 28.936 57.2967 29.344 58.3847 29.344C59.4727 29.344 60.3287 28.936 60.9527 28.12C61.5927 27.288 61.9127 26.168 61.9127 24.76ZM71.7249 20.392C71.7249 20.92 71.7089 21.488 71.6769 22.096C71.6609 22.688 71.6209 23.288 71.5569 23.896C71.4929 24.488 71.4049 25.08 71.2929 25.672C71.1809 26.248 71.0369 26.792 70.8609 27.304C70.6849 27.816 70.4609 28.296 70.1889 28.744C69.9329 29.192 69.6129 29.592 69.2289 29.944C68.8449 30.28 68.3969 30.568 67.8849 30.808C67.3729 31.032 66.7729 31.176 66.0849 31.24L65.7729 29.368C66.5569 29.208 67.1729 28.912 67.6209 28.48C68.0849 28.048 68.4529 27.52 68.7249 26.896C68.9649 26.352 69.1409 25.736 69.2529 25.048C69.3649 24.36 69.4449 23.648 69.4929 22.912C69.5409 22.16 69.5649 21.408 69.5649 20.656C69.5809 19.904 69.5889 19.192 69.5889 18.52H77.8929V31H75.6609V20.392H71.7249ZM92.7407 24.76C92.7407 25.752 92.5967 26.648 92.3087 27.448C92.0207 28.248 91.6127 28.936 91.0847 29.512C90.5727 30.088 89.9567 30.536 89.2367 30.856C88.5167 31.16 87.7327 31.312 86.8847 31.312C86.0367 31.312 85.2527 31.16 84.5327 30.856C83.8127 30.536 83.1887 30.088 82.6607 29.512C82.1487 28.936 81.7487 28.248 81.4607 27.448C81.1727 26.648 81.0287 25.752 81.0287 24.76C81.0287 23.784 81.1727 22.896 81.4607 22.096C81.7487 21.28 82.1487 20.584 82.6607 20.008C83.1887 19.432 83.8127 18.992 84.5327 18.688C85.2527 18.368 86.0367 18.208 86.8847 18.208C87.7327 18.208 88.5167 18.368 89.2367 18.688C89.9567 18.992 90.5727 19.432 91.0847 20.008C91.6127 20.584 92.0207 21.28 92.3087 22.096C92.5967 22.896 92.7407 23.784 92.7407 24.76ZM90.4127 24.76C90.4127 23.352 90.0927 22.24 89.4527 21.424C88.8287 20.592 87.9727 20.176 86.8847 20.176C85.7967 20.176 84.9327 20.592 84.2927 21.424C83.6687 22.24 83.3567 23.352 83.3567 24.76C83.3567 26.168 83.6687 27.288 84.2927 28.12C84.9327 28.936 85.7967 29.344 86.8847 29.344C87.9727 29.344 88.8287 28.936 89.4527 28.12C90.0927 27.288 90.4127 26.168 90.4127 24.76ZM98.0649 29.32C98.1609 29.336 98.2969 29.352 98.4729 29.368C98.6489 29.384 98.8489 29.4 99.0729 29.416C99.2969 29.416 99.5289 29.424 99.7689 29.44C100.025 29.44 100.265 29.44 100.489 29.44C100.953 29.44 101.393 29.408 101.809 29.344C102.241 29.28 102.609 29.168 102.913 29.008C103.233 28.848 103.481 28.64 103.657 28.384C103.849 28.112 103.945 27.768 103.945 27.352C103.945 26.952 103.857 26.624 103.681 26.368C103.521 26.096 103.297 25.88 103.009 25.72C102.721 25.56 102.377 25.448 101.977 25.384C101.593 25.32 101.177 25.288 100.729 25.288H98.0649V29.32ZM100.441 23.632C100.873 23.632 101.265 23.608 101.617 23.56C101.985 23.496 102.297 23.392 102.553 23.248C102.825 23.104 103.033 22.912 103.177 22.672C103.337 22.432 103.417 22.128 103.417 21.76C103.417 21.376 103.321 21.072 103.129 20.848C102.937 20.624 102.681 20.456 102.361 20.344C102.057 20.216 101.705 20.136 101.305 20.104C100.921 20.056 100.529 20.032 100.129 20.032C99.7609 20.032 99.3849 20.04 99.0009 20.056C98.6329 20.072 98.3209 20.088 98.0649 20.104V23.632H100.441ZM100.393 31.216C99.4489 31.216 98.5769 31.168 97.7769 31.072C96.9769 30.992 96.3449 30.896 95.8809 30.784V18.64C96.3449 18.528 96.9769 18.432 97.7769 18.352C98.5769 18.256 99.4489 18.208 100.393 18.208C101.049 18.208 101.689 18.264 102.313 18.376C102.937 18.488 103.489 18.68 103.969 18.952C104.449 19.208 104.833 19.568 105.121 20.032C105.425 20.48 105.577 21.04 105.577 21.712C105.577 22.32 105.425 22.84 105.121 23.272C104.817 23.704 104.409 24.04 103.897 24.28C104.585 24.52 105.129 24.88 105.529 25.36C105.945 25.824 106.153 26.48 106.153 27.328C106.153 28.08 106.001 28.704 105.697 29.2C105.409 29.696 105.001 30.096 104.473 30.4C103.961 30.704 103.353 30.912 102.649 31.024C101.945 31.152 101.193 31.216 100.393 31.216ZM120.045 24.76C120.045 25.752 119.901 26.648 119.613 27.448C119.325 28.248 118.917 28.936 118.389 29.512C117.877 30.088 117.261 30.536 116.541 30.856C115.821 31.16 115.037 31.312 114.189 31.312C113.341 31.312 112.557 31.16 111.837 30.856C111.117 30.536 110.493 30.088 109.965 29.512C109.453 28.936 109.053 28.248 108.765 27.448C108.477 26.648 108.333 25.752 108.333 24.76C108.333 23.784 108.477 22.896 108.765 22.096C109.053 21.28 109.453 20.584 109.965 20.008C110.493 19.432 111.117 18.992 111.837 18.688C112.557 18.368 113.341 18.208 114.189 18.208C115.037 18.208 115.821 18.368 116.541 18.688C117.261 18.992 117.877 19.432 118.389 20.008C118.917 20.584 119.325 21.28 119.613 22.096C119.901 22.896 120.045 23.784 120.045 24.76ZM117.717 24.76C117.717 23.352 117.397 22.24 116.757 21.424C116.133 20.592 115.277 20.176 114.189 20.176C113.101 20.176 112.237 20.592 111.597 21.424C110.973 22.24 110.661 23.352 110.661 24.76C110.661 26.168 110.973 27.288 111.597 28.12C112.237 28.936 113.101 29.344 114.189 29.344C115.277 29.344 116.133 28.936 116.757 28.12C117.397 27.288 117.717 26.168 117.717 24.76ZM127.746 24.208C128.242 24.56 128.778 25.008 129.354 25.552C129.93 26.08 130.49 26.656 131.034 27.28C131.594 27.904 132.114 28.544 132.594 29.2C133.074 29.84 133.482 30.44 133.818 31H131.178C130.826 30.456 130.41 29.904 129.93 29.344C129.466 28.768 128.978 28.216 128.466 27.688C127.954 27.16 127.434 26.672 126.906 26.224C126.378 25.776 125.882 25.4 125.418 25.096V31H123.186V18.52H125.418V23.872C125.802 23.504 126.242 23.08 126.738 22.6C127.234 22.104 127.73 21.608 128.226 21.112C128.738 20.6 129.21 20.12 129.642 19.672C130.074 19.208 130.426 18.824 130.698 18.52H133.29C132.938 18.904 132.522 19.344 132.042 19.84C131.578 20.32 131.09 20.816 130.578 21.328C130.082 21.84 129.586 22.352 129.09 22.864C128.594 23.36 128.146 23.808 127.746 24.208Z" fill="black"/>
<path d="M20.46 73.12C20.18 73.12 19.8733 73.1133 19.54 73.1C19.22 73.0867 18.8933 73.0667 18.56 73.04C18.24 73.0133 17.92 72.98 17.6 72.94C17.28 72.9 16.9867 72.8467 16.72 72.78V59.34C16.9867 59.2733 17.28 59.22 17.6 59.18C17.92 59.14 18.24 59.1067 18.56 59.08C18.8933 59.0533 19.22 59.0333 19.54 59.02C19.86 59.0067 20.16 59 20.44 59C21.24 59 21.9867 59.06 22.68 59.18C23.3867 59.3 23.9933 59.5067 24.5 59.8C25.02 60.08 25.4267 60.4533 25.72 60.92C26.0133 61.3867 26.16 61.96 26.16 62.64C26.16 63.4 25.98 64.0267 25.62 64.52C25.26 65 24.78 65.36 24.18 65.6C24.9933 65.84 25.64 66.22 26.12 66.74C26.6 67.26 26.84 67.9933 26.84 68.94C26.84 70.3267 26.3267 71.3733 25.3 72.08C24.2867 72.7733 22.6733 73.12 20.46 73.12ZM18.64 66.54V71.42C18.7867 71.4333 18.96 71.4467 19.16 71.46C19.3333 71.4733 19.5333 71.4867 19.76 71.5C20 71.5 20.2733 71.5 20.58 71.5C21.1533 71.5 21.6933 71.4667 22.2 71.4C22.72 71.32 23.1733 71.1867 23.56 71C23.9467 70.8133 24.2533 70.5533 24.48 70.22C24.72 69.8867 24.84 69.4667 24.84 68.96C24.84 68.5067 24.7533 68.1267 24.58 67.82C24.4067 67.5 24.1533 67.2467 23.82 67.06C23.5 66.8733 23.1133 66.74 22.66 66.66C22.2067 66.58 21.7 66.54 21.14 66.54H18.64ZM18.64 64.98H20.68C21.16 64.98 21.6133 64.9467 22.04 64.88C22.4667 64.8133 22.8333 64.6933 23.14 64.52C23.46 64.3467 23.7067 64.12 23.88 63.84C24.0667 63.56 24.16 63.2067 24.16 62.78C24.16 62.38 24.0667 62.0467 23.88 61.78C23.6933 61.5 23.4333 61.28 23.1 61.12C22.78 60.9467 22.4 60.82 21.96 60.74C21.52 60.66 21.0533 60.62 20.56 60.62C20.0667 60.62 19.68 60.6267 19.4 60.64C19.12 60.6533 18.8667 60.6733 18.64 60.7V64.98ZM38.6005 73.24C37.7605 73.24 37.0205 73.1067 36.3805 72.84C35.7538 72.5733 35.2205 72.2 34.7805 71.72C34.3538 71.24 34.0338 70.6733 33.8205 70.02C33.6071 69.3533 33.5005 68.62 33.5005 67.82C33.5005 67.02 33.6138 66.2867 33.8405 65.62C34.0805 64.9533 34.4138 64.38 34.8405 63.9C35.2671 63.4067 35.7871 63.0267 36.4005 62.76C37.0271 62.48 37.7205 62.34 38.4805 62.34C38.9471 62.34 39.4138 62.38 39.8805 62.46C40.3471 62.54 40.7938 62.6667 41.2205 62.84L40.8005 64.42C40.5205 64.2867 40.1938 64.18 39.8205 64.1C39.4605 64.02 39.0738 63.98 38.6605 63.98C37.6205 63.98 36.8205 64.3067 36.2605 64.96C35.7138 65.6133 35.4405 66.5667 35.4405 67.82C35.4405 68.38 35.5005 68.8933 35.6205 69.36C35.7538 69.8267 35.9538 70.2267 36.2205 70.56C36.5005 70.8933 36.8538 71.1533 37.2805 71.34C37.7071 71.5133 38.2271 71.6 38.8405 71.6C39.3338 71.6 39.7805 71.5533 40.1805 71.46C40.5805 71.3667 40.8938 71.2667 41.1205 71.16L41.3805 72.72C41.2738 72.7867 41.1205 72.8533 40.9205 72.92C40.7205 72.9733 40.4938 73.02 40.2405 73.06C39.9871 73.1133 39.7138 73.1533 39.4205 73.18C39.1405 73.22 38.8671 73.24 38.6005 73.24ZM42.7973 67.82C42.7973 66.9 42.9307 66.1 43.1973 65.42C43.464 64.7267 43.8173 64.1533 44.2573 63.7C44.6973 63.2467 45.204 62.9067 45.7773 62.68C46.3507 62.4533 46.9373 62.34 47.5373 62.34C48.9373 62.34 50.0107 62.78 50.7573 63.66C51.504 64.5267 51.8773 65.8533 51.8773 67.64C51.8773 67.72 51.8773 67.8267 51.8773 67.96C51.8773 68.08 51.8707 68.1933 51.8573 68.3H44.7373C44.8173 69.38 45.1307 70.2 45.6773 70.76C46.224 71.32 47.0773 71.6 48.2373 71.6C48.8907 71.6 49.4373 71.5467 49.8773 71.44C50.3307 71.32 50.6707 71.2067 50.8973 71.1L51.1573 72.66C50.9307 72.78 50.5307 72.9067 49.9573 73.04C49.3973 73.1733 48.7573 73.24 48.0373 73.24C47.1307 73.24 46.344 73.1067 45.6773 72.84C45.024 72.56 44.484 72.18 44.0573 71.7C43.6307 71.22 43.3107 70.6533 43.0973 70C42.8973 69.3333 42.7973 68.6067 42.7973 67.82ZM49.9373 66.8C49.9507 65.96 49.7373 65.2733 49.2973 64.74C48.8707 64.1933 48.2773 63.92 47.5173 63.92C47.0907 63.92 46.7107 64.0067 46.3773 64.18C46.0573 64.34 45.784 64.5533 45.5573 64.82C45.3307 65.0867 45.1507 65.3933 45.0173 65.74C44.8973 66.0867 44.8173 66.44 44.7773 66.8H49.9373ZM58.1692 64.16C58.1692 64.6 58.1559 65.0733 58.1292 65.58C58.1159 66.0733 58.0826 66.5733 58.0292 67.08C57.9759 67.5733 57.9026 68.0667 57.8092 68.56C57.7159 69.04 57.5959 69.4933 57.4492 69.92C57.3026 70.3467 57.1159 70.7467 56.8892 71.12C56.6759 71.4933 56.4092 71.8267 56.0892 72.12C55.7692 72.4 55.3959 72.64 54.9692 72.84C54.5426 73.0267 54.0426 73.1467 53.4692 73.2L53.2092 71.64C53.8626 71.5067 54.3759 71.26 54.7492 70.9C55.1359 70.54 55.4426 70.1 55.6692 69.58C55.8692 69.1267 56.0159 68.6133 56.1092 68.04C56.2026 67.4667 56.2692 66.8733 56.3092 66.26C56.3492 65.6333 56.3692 65.0067 56.3692 64.38C56.3826 63.7533 56.3892 63.16 56.3892 62.6H63.3092V73H61.4492V64.16H58.1692ZM65.9223 67.82C65.9223 66.9 66.0557 66.1 66.3223 65.42C66.589 64.7267 66.9423 64.1533 67.3823 63.7C67.8223 63.2467 68.329 62.9067 68.9023 62.68C69.4757 62.4533 70.0623 62.34 70.6623 62.34C72.0623 62.34 73.1357 62.78 73.8823 63.66C74.629 64.5267 75.0023 65.8533 75.0023 67.64C75.0023 67.72 75.0023 67.8267 75.0023 67.96C75.0023 68.08 74.9957 68.1933 74.9823 68.3H67.8623C67.9423 69.38 68.2557 70.2 68.8023 70.76C69.349 71.32 70.2023 71.6 71.3623 71.6C72.0157 71.6 72.5623 71.5467 73.0023 71.44C73.4557 71.32 73.7957 71.2067 74.0223 71.1L74.2823 72.66C74.0557 72.78 73.6557 72.9067 73.0823 73.04C72.5223 73.1733 71.8823 73.24 71.1623 73.24C70.2557 73.24 69.469 73.1067 68.8023 72.84C68.149 72.56 67.609 72.18 67.1823 71.7C66.7557 71.22 66.4357 70.6533 66.2223 70C66.0223 69.3333 65.9223 68.6067 65.9223 67.82ZM73.0623 66.8C73.0757 65.96 72.8623 65.2733 72.4223 64.74C71.9957 64.1933 71.4023 63.92 70.6423 63.92C70.2157 63.92 69.8357 64.0067 69.5023 64.18C69.1823 64.34 68.909 64.5533 68.6823 64.82C68.4557 65.0867 68.2757 65.3933 68.1423 65.74C68.0223 66.0867 67.9423 66.44 67.9023 66.8H73.0623ZM89.5231 67.82C89.5231 66.6067 89.2231 65.6733 88.6231 65.02C88.0231 64.3667 87.2231 64.04 86.2231 64.04C85.6631 64.04 85.2231 64.06 84.9031 64.1C84.5965 64.14 84.3498 64.1867 84.1631 64.24V70.8C84.3898 70.9867 84.7165 71.1667 85.1431 71.34C85.5698 71.5133 86.0365 71.6 86.5431 71.6C87.0765 71.6 87.5298 71.5067 87.9031 71.32C88.2898 71.12 88.6031 70.8533 88.8431 70.52C89.0831 70.1733 89.2565 69.7733 89.3631 69.32C89.4698 68.8533 89.5231 68.3533 89.5231 67.82ZM91.4631 67.82C91.4631 68.6067 91.3565 69.3333 91.1431 70C90.9431 70.6667 90.6431 71.24 90.2431 71.72C89.8431 72.2 89.3498 72.5733 88.7631 72.84C88.1898 73.1067 87.5298 73.24 86.7831 73.24C86.1831 73.24 85.6498 73.16 85.1831 73C84.7298 72.84 84.3898 72.6867 84.1631 72.54V76.7H82.3031V62.92C82.7431 62.8133 83.2898 62.7 83.9431 62.58C84.6098 62.4467 85.3765 62.38 86.2431 62.38C87.0431 62.38 87.7631 62.5067 88.4031 62.76C89.0431 63.0133 89.5898 63.3733 90.0431 63.84C90.4965 64.3067 90.8431 64.88 91.0831 65.56C91.3365 66.2267 91.4631 66.98 91.4631 67.82ZM103.26 67.8C103.26 68.6267 103.14 69.3733 102.9 70.04C102.66 70.7067 102.32 71.28 101.88 71.76C101.454 72.24 100.94 72.6133 100.34 72.88C99.7405 73.1333 99.0871 73.26 98.3805 73.26C97.6738 73.26 97.0205 73.1333 96.4205 72.88C95.8205 72.6133 95.3005 72.24 94.8605 71.76C94.4338 71.28 94.1005 70.7067 93.8605 70.04C93.6205 69.3733 93.5005 68.6267 93.5005 67.8C93.5005 66.9867 93.6205 66.2467 93.8605 65.58C94.1005 64.9 94.4338 64.32 94.8605 63.84C95.3005 63.36 95.8205 62.9933 96.4205 62.74C97.0205 62.4733 97.6738 62.34 98.3805 62.34C99.0871 62.34 99.7405 62.4733 100.34 62.74C100.94 62.9933 101.454 63.36 101.88 63.84C102.32 64.32 102.66 64.9 102.9 65.58C103.14 66.2467 103.26 66.9867 103.26 67.8ZM101.32 67.8C101.32 66.6267 101.054 65.7 100.52 65.02C100 64.3267 99.2871 63.98 98.3805 63.98C97.4738 63.98 96.7538 64.3267 96.2205 65.02C95.7005 65.7 95.4405 66.6267 95.4405 67.8C95.4405 68.9733 95.7005 69.9067 96.2205 70.6C96.7538 71.28 97.4738 71.62 98.3805 71.62C99.2871 71.62 100 71.28 100.52 70.6C101.054 69.9067 101.32 68.9733 101.32 67.8ZM104.597 71.48H105.717C106.157 70.84 106.504 70.18 106.757 69.5C107.024 68.82 107.224 68.12 107.357 67.4C107.491 66.6667 107.577 65.9067 107.617 65.12C107.657 64.32 107.684 63.48 107.697 62.6H114.517V71.48H115.917V75.9H114.157V73H106.357V75.9H104.597V71.48ZM112.657 71.48V64.16H109.397C109.384 64.7867 109.351 65.42 109.297 66.06C109.244 66.6867 109.157 67.3133 109.037 67.94C108.917 68.5533 108.744 69.16 108.517 69.76C108.304 70.3467 108.031 70.92 107.697 71.48H112.657ZM126.668 62.6V73H124.868V65.08C124.468 65.5867 124.028 66.18 123.548 66.86C123.068 67.54 122.588 68.2467 122.108 68.98C121.628 69.7 121.168 70.4133 120.728 71.12C120.288 71.8267 119.908 72.4533 119.588 73H117.928V62.6H119.728V70.08C120.075 69.5067 120.468 68.88 120.908 68.2C121.348 67.5067 121.801 66.8267 122.268 66.16C122.748 65.48 123.221 64.8333 123.688 64.22C124.168 63.5933 124.615 63.0533 125.028 62.6H126.668ZM133.482 64.16C133.482 64.6 133.468 65.0733 133.442 65.58C133.428 66.0733 133.395 66.5733 133.342 67.08C133.288 67.5733 133.215 68.0667 133.122 68.56C133.028 69.04 132.908 69.4933 132.762 69.92C132.615 70.3467 132.428 70.7467 132.202 71.12C131.988 71.4933 131.722 71.8267 131.402 72.12C131.082 72.4 130.708 72.64 130.282 72.84C129.855 73.0267 129.355 73.1467 128.782 73.2L128.522 71.64C129.175 71.5067 129.688 71.26 130.062 70.9C130.448 70.54 130.755 70.1 130.982 69.58C131.182 69.1267 131.328 68.6133 131.422 68.04C131.515 67.4667 131.582 66.8733 131.622 66.26C131.662 65.6333 131.682 65.0067 131.682 64.38C131.695 63.7533 131.702 63.16 131.702 62.6H138.622V73H136.762V64.16H133.482ZM145.335 71.66C145.775 71.66 146.162 71.6533 146.495 71.64C146.842 71.6133 147.128 71.5733 147.355 71.52V68.42C147.222 68.3533 147.002 68.3 146.695 68.26C146.402 68.2067 146.042 68.18 145.615 68.18C145.335 68.18 145.035 68.2 144.715 68.24C144.408 68.28 144.122 68.3667 143.855 68.5C143.602 68.62 143.388 68.7933 143.215 69.02C143.042 69.2333 142.955 69.52 142.955 69.88C142.955 70.5467 143.168 71.0133 143.595 71.28C144.022 71.5333 144.602 71.66 145.335 71.66ZM145.175 62.34C145.922 62.34 146.548 62.44 147.055 62.64C147.575 62.8267 147.988 63.1 148.295 63.46C148.615 63.8067 148.842 64.2267 148.975 64.72C149.108 65.2 149.175 65.7333 149.175 66.32V72.82C149.015 72.8467 148.788 72.8867 148.495 72.94C148.215 72.98 147.895 73.02 147.535 73.06C147.175 73.1 146.782 73.1333 146.355 73.16C145.942 73.2 145.528 73.22 145.115 73.22C144.528 73.22 143.988 73.16 143.495 73.04C143.002 72.92 142.575 72.7333 142.215 72.48C141.855 72.2133 141.575 71.8667 141.375 71.44C141.175 71.0133 141.075 70.5 141.075 69.9C141.075 69.3267 141.188 68.8333 141.415 68.42C141.655 68.0067 141.975 67.6733 142.375 67.42C142.775 67.1667 143.242 66.98 143.775 66.86C144.308 66.74 144.868 66.68 145.455 66.68C145.642 66.68 145.835 66.6933 146.035 66.72C146.235 66.7333 146.422 66.76 146.595 66.8C146.782 66.8267 146.942 66.8533 147.075 66.88C147.208 66.9067 147.302 66.9267 147.355 66.94V66.42C147.355 66.1133 147.322 65.8133 147.255 65.52C147.188 65.2133 147.068 64.9467 146.895 64.72C146.722 64.48 146.482 64.2933 146.175 64.16C145.882 64.0133 145.495 63.94 145.015 63.94C144.402 63.94 143.862 63.9867 143.395 64.08C142.942 64.16 142.602 64.2467 142.375 64.34L142.155 62.8C142.395 62.6933 142.795 62.5933 143.355 62.5C143.915 62.3933 144.522 62.34 145.175 62.34ZM25.0289 90.34C25.4422 90.6333 25.8889 91.0067 26.3689 91.46C26.8489 91.9 27.3156 92.38 27.7689 92.9C28.2356 93.42 28.6689 93.9533 29.0689 94.5C29.4689 95.0333 29.8089 95.5333 30.0889 96H27.8889C27.5956 95.5467 27.2489 95.0867 26.8489 94.62C26.4622 94.14 26.0556 93.68 25.6289 93.24C25.2022 92.8 24.7689 92.3933 24.3289 92.02C23.8889 91.6467 23.4756 91.3333 23.0889 91.08V96H21.2289V85.6H23.0889V90.06C23.4089 89.7533 23.7756 89.4 24.1889 89C24.6022 88.5867 25.0156 88.1733 25.4289 87.76C25.8556 87.3333 26.2489 86.9333 26.6089 86.56C26.9689 86.1733 27.2622 85.8533 27.4889 85.6H29.6489C29.3556 85.92 29.0089 86.2867 28.6089 86.7C28.2222 87.1 27.8156 87.5133 27.3889 87.94C26.9756 88.3667 26.5622 88.7933 26.1489 89.22C25.7356 89.6333 25.3622 90.0067 25.0289 90.34ZM40.5652 90.8C40.5652 91.6267 40.4452 92.3733 40.2052 93.04C39.9652 93.7067 39.6252 94.28 39.1852 94.76C38.7585 95.24 38.2452 95.6133 37.6452 95.88C37.0452 96.1333 36.3918 96.26 35.6852 96.26C34.9785 96.26 34.3252 96.1333 33.7252 95.88C33.1252 95.6133 32.6052 95.24 32.1652 94.76C31.7385 94.28 31.4052 93.7067 31.1652 93.04C30.9252 92.3733 30.8052 91.6267 30.8052 90.8C30.8052 89.9867 30.9252 89.2467 31.1652 88.58C31.4052 87.9 31.7385 87.32 32.1652 86.84C32.6052 86.36 33.1252 85.9933 33.7252 85.74C34.3252 85.4733 34.9785 85.34 35.6852 85.34C36.3918 85.34 37.0452 85.4733 37.6452 85.74C38.2452 85.9933 38.7585 86.36 39.1852 86.84C39.6252 87.32 39.9652 87.9 40.2052 88.58C40.4452 89.2467 40.5652 89.9867 40.5652 90.8ZM38.6252 90.8C38.6252 89.6267 38.3585 88.7 37.8252 88.02C37.3052 87.3267 36.5918 86.98 35.6852 86.98C34.7785 86.98 34.0585 87.3267 33.5252 88.02C33.0052 88.7 32.7452 89.6267 32.7452 90.8C32.7452 91.9733 33.0052 92.9067 33.5252 93.6C34.0585 94.28 34.7785 94.62 35.6852 94.62C36.5918 94.62 37.3052 94.28 37.8252 93.6C38.3585 92.9067 38.6252 91.9733 38.6252 90.8ZM43.182 96V85.6H45.042V94.46H48.882V85.6H50.742V94.46H54.582V85.6H56.442V96H43.182ZM63.4469 90.34C63.8602 90.6333 64.3069 91.0067 64.7869 91.46C65.2669 91.9 65.7335 92.38 66.1869 92.9C66.6535 93.42 67.0869 93.9533 67.4869 94.5C67.8869 95.0333 68.2269 95.5333 68.5069 96H66.3069C66.0135 95.5467 65.6669 95.0867 65.2669 94.62C64.8802 94.14 64.4735 93.68 64.0469 93.24C63.6202 92.8 63.1869 92.3933 62.7469 92.02C62.3069 91.6467 61.8935 91.3333 61.5069 91.08V96H59.6469V85.6H61.5069V90.06C61.8269 89.7533 62.1935 89.4 62.6069 89C63.0202 88.5867 63.4335 88.1733 63.8469 87.76C64.2735 87.3333 64.6669 86.9333 65.0269 86.56C65.3869 86.1733 65.6802 85.8533 65.9069 85.6H68.0669C67.7735 85.92 67.4269 86.2867 67.0269 86.7C66.6402 87.1 66.2335 87.5133 65.8069 87.94C65.3935 88.3667 64.9802 88.7933 64.5669 89.22C64.1535 89.6333 63.7802 90.0067 63.4469 90.34ZM73.9091 94.66C74.3491 94.66 74.7357 94.6533 75.0691 94.64C75.4157 94.6133 75.7024 94.5733 75.9291 94.52V91.42C75.7957 91.3533 75.5757 91.3 75.2691 91.26C74.9757 91.2067 74.6157 91.18 74.1891 91.18C73.9091 91.18 73.6091 91.2 73.2891 91.24C72.9824 91.28 72.6957 91.3667 72.4291 91.5C72.1757 91.62 71.9624 91.7933 71.7891 92.02C71.6157 92.2333 71.5291 92.52 71.5291 92.88C71.5291 93.5467 71.7424 94.0133 72.1691 94.28C72.5957 94.5333 73.1757 94.66 73.9091 94.66ZM73.7491 85.34C74.4957 85.34 75.1224 85.44 75.6291 85.64C76.1491 85.8267 76.5624 86.1 76.8691 86.46C77.1891 86.8067 77.4157 87.2267 77.5491 87.72C77.6824 88.2 77.7491 88.7333 77.7491 89.32V95.82C77.5891 95.8467 77.3624 95.8867 77.0691 95.94C76.7891 95.98 76.4691 96.02 76.1091 96.06C75.7491 96.1 75.3557 96.1333 74.9291 96.16C74.5157 96.2 74.1024 96.22 73.6891 96.22C73.1024 96.22 72.5624 96.16 72.0691 96.04C71.5757 95.92 71.1491 95.7333 70.7891 95.48C70.4291 95.2133 70.1491 94.8667 69.9491 94.44C69.7491 94.0133 69.6491 93.5 69.6491 92.9C69.6491 92.3267 69.7624 91.8333 69.9891 91.42C70.2291 91.0067 70.5491 90.6733 70.9491 90.42C71.3491 90.1667 71.8157 89.98 72.3491 89.86C72.8824 89.74 73.4424 89.68 74.0291 89.68C74.2157 89.68 74.4091 89.6933 74.6091 89.72C74.8091 89.7333 74.9957 89.76 75.1691 89.8C75.3557 89.8267 75.5157 89.8533 75.6491 89.88C75.7824 89.9067 75.8757 89.9267 75.9291 89.94V89.42C75.9291 89.1133 75.8957 88.8133 75.8291 88.52C75.7624 88.2133 75.6424 87.9467 75.4691 87.72C75.2957 87.48 75.0557 87.2933 74.7491 87.16C74.4557 87.0133 74.0691 86.94 73.5891 86.94C72.9757 86.94 72.4357 86.9867 71.9691 87.08C71.5157 87.16 71.1757 87.2467 70.9491 87.34L70.7291 85.8C70.9691 85.6933 71.3691 85.5933 71.9291 85.5C72.4891 85.3933 73.0957 85.34 73.7491 85.34ZM87.6672 94.92C87.6672 95.28 87.5472 95.5933 87.3072 95.86C87.0672 96.1267 86.7405 96.26 86.3272 96.26C85.9139 96.26 85.5872 96.1267 85.3472 95.86C85.1072 95.5933 84.9872 95.28 84.9872 94.92C84.9872 94.56 85.1072 94.2467 85.3472 93.98C85.5872 93.7133 85.9139 93.58 86.3272 93.58C86.7405 93.58 87.0672 93.7133 87.3072 93.98C87.5472 94.2467 87.6672 94.56 87.6672 94.92ZM92.5891 94.92C92.5891 95.28 92.4691 95.5933 92.2291 95.86C91.9891 96.1267 91.6624 96.26 91.2491 96.26C90.8357 96.26 90.5091 96.1267 90.2691 95.86C90.0291 95.5933 89.9091 95.28 89.9091 94.92C89.9091 94.56 90.0291 94.2467 90.2691 93.98C90.5091 93.7133 90.8357 93.58 91.2491 93.58C91.6624 93.58 91.9891 93.7133 92.2291 93.98C92.4691 94.2467 92.5891 94.56 92.5891 94.92ZM97.5109 94.92C97.5109 95.28 97.3909 95.5933 97.1509 95.86C96.9109 96.1267 96.5843 96.26 96.1709 96.26C95.7576 96.26 95.4309 96.1267 95.1909 95.86C94.9509 95.5933 94.8309 95.28 94.8309 94.92C94.8309 94.56 94.9509 94.2467 95.1909 93.98C95.4309 93.7133 95.7576 93.58 96.1709 93.58C96.5843 93.58 96.9109 93.7133 97.1509 93.98C97.3909 94.2467 97.5109 94.56 97.5109 94.92Z" fill="black"/>
<defs>
<filter id="filter0_d_24_7" x="0" y="0" width="208" height="208" filterUnits="userSpaceOnUse" color-interpolation-filters="sRGB">
<feFlood flood-opacity="0" result="BackgroundImageFix"/>
<feColorMatrix in="SourceAlpha" type="matrix" values="0 0 0 0 0 0 0 0 0 0 0 0 0 0 0 0 0 0 127 0" result="hardAlpha"/>
<feOffset dy="4"/>
<feGaussianBlur stdDeviation="2"/>
<feComposite in2="hardAlpha" operator="out"/>
<feColorMatrix type="matrix" values="0 0 0 0 0 0 0 0 0 0 0 0 0 0 0 0 0 0 0.25 0"/>
<feBlend mode="normal" in2="BackgroundImageFix" result="effect1_dropShadow_24_7"/>
<feBlend mode="normal" in="SourceGraphic" in2="effect1_dropShadow_24_7" result="shape"/>
</filter>
<radialGradient id="paint0_radial_24_7" cx="0" cy="0" r="1" gradientUnits="userSpaceOnUse" gradientTransform="translate(83 84.5) rotate(43.6678) scale(167.276 225.284)">
<stop offset="0.634327" stop-color="#6C8BA7"/>
<stop offset="1" stop-color="#043A6B" stop-opacity="0"/>
</radialGradient>
</defs>
</svg>
